<svg width="50" height="50" viewBox="0 0 50 50" fill="none" xmlns="http://www.w3.org/2000/svg">
<path fill-rule="evenodd" clip-rule="evenodd" d="M25 7.8125C15.5076 7.8125 7.8125 15.5076 7.8125 25C7.8125 34.4924 15.5076 42.1875 25 42.1875C34.4924 42.1875 42.1875 34.4924 42.1875 25C42.1875 15.5076 34.4924 7.8125 25 7.8125ZM4.6875 25C4.6875 13.7817 13.7817 4.6875 25 4.6875C36.2183 4.6875 45.3125 13.7817 45.3125 25C45.3125 36.2183 36.2183 45.3125 25 45.3125C13.7817 45.3125 4.6875 36.2183 4.6875 25Z" fill="black"/>
<path fill-rule="evenodd" clip-rule="evenodd" d="M26.8635 19.0343C25.6114 18.6432 24.268 18.6559 23.0236 19.0707C21.7791 19.4855 20.6967 20.2814 19.9297 21.3456C19.1627 22.4097 18.75 23.6882 18.75 25C18.75 26.3118 19.1627 27.5903 19.9297 28.6544C20.6967 29.7186 21.7791 30.5145 23.0236 30.9293C24.268 31.3441 25.6114 31.3568 26.8635 30.9657C28.1156 30.5746 29.2129 29.7994 30 28.75C30.5178 28.0596 31.4971 27.9197 32.1875 28.4375C32.8779 28.9553 33.0178 29.9346 32.5 30.625C31.3194 32.1991 29.6735 33.3619 27.7953 33.9486C25.9172 34.5353 23.902 34.5161 22.0354 33.8939C20.1687 33.2717 18.5451 32.0779 17.3946 30.4817C16.2441 28.8854 15.625 26.9676 15.625 25C15.625 23.0324 16.2441 21.1146 17.3946 19.5183C18.5451 17.9221 20.1687 16.7283 22.0354 16.1061C23.902 15.4839 25.9172 15.4647 27.7953 16.0514C29.6735 16.6381 31.3194 17.8009 32.5 19.375C33.0178 20.0654 32.8779 21.0447 32.1875 21.5625C31.4971 22.0803 30.5178 21.9404 30 21.25C29.2129 20.2006 28.1156 19.4254 26.8635 19.0343Z" fill="black"/>
</svg>
