<svg width="50" height="50" viewBox="0 0 50 50" fill="none" xmlns="http://www.w3.org/2000/svg">
<path fill-rule="evenodd" clip-rule="evenodd" d="M4.6875 17.1875C4.6875 15.4616 6.08661 14.0625 7.8125 14.0625H42.1875C43.9134 14.0625 45.3125 15.4616 45.3125 17.1875V23.4375C45.3125 25.1634 43.9134 26.5625 42.1875 26.5625H7.8125C6.08661 26.5625 4.6875 25.1634 4.6875 23.4375V17.1875ZM42.1875 17.1875H7.8125V23.4375H42.1875V17.1875Z" fill="black"/>
<path fill-rule="evenodd" clip-rule="evenodd" d="M9.375 23.4375C10.2379 23.4375 10.9375 24.1371 10.9375 25V39.0625H39.0625V25C39.0625 24.1371 39.7621 23.4375 40.625 23.4375C41.4879 23.4375 42.1875 24.1371 42.1875 25V39.0625C42.1875 39.8913 41.8583 40.6862 41.2722 41.2722C40.6862 41.8583 39.8913 42.1875 39.0625 42.1875H10.9375C10.1087 42.1875 9.31384 41.8583 8.72779 41.2722C8.14174 40.6862 7.8125 39.8913 7.8125 39.0625V25C7.8125 24.1371 8.51206 23.4375 9.375 23.4375Z" fill="black"/>
<path fill-rule="evenodd" clip-rule="evenodd" d="M25 14.0625C25.8629 14.0625 26.5625 14.7621 26.5625 15.625V40.625C26.5625 41.4879 25.8629 42.1875 25 42.1875C24.1371 42.1875 23.4375 41.4879 23.4375 40.625V15.625C23.4375 14.7621 24.1371 14.0625 25 14.0625Z" fill="black"/>
<path fill-rule="evenodd" clip-rule="evenodd" d="M28.3145 7.87969C28.0105 8.18761 27.6924 8.75393 27.4138 9.59199C27.1434 10.4057 26.9532 11.3424 26.8227 12.2569C26.7338 12.88 26.6751 13.475 26.6364 13.9887C27.15 13.95 27.7451 13.8913 28.3682 13.8024C29.2826 13.6719 30.2194 13.4817 31.0331 13.2112C31.8712 12.9327 32.4375 12.6146 32.7454 12.3106C33.3314 11.7232 33.6605 10.9274 33.6605 10.0977C33.6605 9.26677 33.3304 8.46985 32.7428 7.88227C32.1552 7.2947 31.3583 6.9646 30.5273 6.9646C29.6976 6.9646 28.9018 7.29373 28.3145 7.87969ZM33.8477 13.418L34.9525 14.5229C36.1261 13.3493 36.7855 11.7575 36.7855 10.0977C36.7855 8.43797 36.1261 6.84619 34.9525 5.67256C33.7789 4.49894 32.1871 3.8396 30.5273 3.8396C28.8676 3.8396 27.2758 4.49894 26.1022 5.67256L26.0973 5.67744C25.2985 6.48332 24.7898 7.57888 24.4483 8.6064C24.098 9.6604 23.8745 10.7964 23.729 11.8155C23.5828 12.8408 23.5103 13.7864 23.4741 14.4737C23.456 14.8185 23.4469 15.1012 23.4422 15.2999C23.4399 15.3993 23.4387 15.4779 23.4381 15.533L23.4376 15.5977L23.4375 15.6161L23.4375 15.6218L23.4375 15.6238C23.4375 15.6241 23.4375 15.6251 25 15.6251L23.4375 15.6238C23.4375 16.0382 23.6021 16.4369 23.8951 16.7299C24.1882 17.023 24.5856 17.1876 25 17.1876V15.6251C25 17.1876 24.9997 17.1876 25 17.1876L25.0033 17.1876L25.0089 17.1876L25.0274 17.1875L25.0921 17.1869C25.1471 17.1863 25.2257 17.1852 25.3252 17.1828C25.5239 17.1782 25.8066 17.1691 26.1514 17.1509C26.8387 17.1148 27.7843 17.0423 28.8096 16.896C29.8287 16.7506 30.9647 16.527 32.0187 16.1767C33.0462 15.8352 34.1418 15.3266 34.9476 14.5278L33.8477 13.418Z" fill="black"/>
<path fill-rule="evenodd" clip-rule="evenodd" d="M15.0476 5.67256C16.2212 4.49894 17.813 3.8396 19.4727 3.8396C21.1325 3.8396 22.7243 4.49894 23.8979 5.67256L23.9028 5.67743C24.7016 6.48331 25.2102 7.57888 25.5517 8.6064C25.902 9.6604 26.1256 10.7964 26.271 11.8155C26.4173 12.8408 26.4898 13.7864 26.5259 14.4737C26.5441 14.8185 26.5532 15.1012 26.5578 15.2999C26.5602 15.3993 26.5613 15.4779 26.5619 15.533L26.5625 15.5977L26.5626 15.6161L26.5626 15.6218L26.5626 15.6238C26.5626 15.6241 26.5626 15.6251 25.0001 15.6251C25.0001 17.1876 24.9998 17.1876 24.9995 17.1876L24.9968 17.1876L24.9911 17.1876L24.9727 17.1875L24.908 17.1869C24.8529 17.1863 24.7743 17.1852 24.6749 17.1828C24.4762 17.1782 24.1935 17.1691 23.8487 17.1509C23.1614 17.1148 22.2158 17.0423 21.1905 16.896C20.1714 16.7506 19.0354 16.527 17.9814 16.1767C16.9539 15.8352 15.8583 15.3266 15.0524 14.5278L16.1524 13.418L15.0476 14.5229C13.8739 13.3493 13.2146 11.7575 13.2146 10.0977C13.2146 8.43797 13.8739 6.84619 15.0476 5.67256ZM17.2546 12.3106C17.5625 12.6146 18.1289 12.9327 18.967 13.2112C19.7807 13.4817 20.7174 13.6719 21.6319 13.8024C22.255 13.8913 22.85 13.95 23.3637 13.9887C23.325 13.475 23.2663 12.88 23.1774 12.2569C23.0469 11.3424 22.8567 10.4057 22.5862 9.59199C22.3077 8.75388 21.9896 8.18755 21.6856 7.87964C21.0982 7.29371 20.3024 6.9646 19.4727 6.9646C18.6418 6.9646 17.8448 7.2947 17.2573 7.88227C16.6697 8.46985 16.3396 9.26677 16.3396 10.0977C16.3396 10.9274 16.6687 11.7232 17.2546 12.3106ZM25.0001 15.6251L24.9995 17.1876C25.4139 17.1876 25.8119 17.023 26.1049 16.7299C26.398 16.4369 26.5626 16.0382 26.5626 15.6238L25.0001 15.6251Z" fill="black"/>
</svg>
