<svg width="50" height="50" viewBox="0 0 50 50" fill="none" xmlns="http://www.w3.org/2000/svg">
<path fill-rule="evenodd" clip-rule="evenodd" d="M1.5625 14.0625C1.5625 12.3366 2.96161 10.9375 4.6875 10.9375H45.3125C47.0384 10.9375 48.4375 12.3366 48.4375 14.0625V35.9375C48.4375 37.6634 47.0384 39.0625 45.3125 39.0625H4.6875C2.96161 39.0625 1.5625 37.6634 1.5625 35.9375V14.0625ZM45.3125 14.0625H4.6875V35.9375H45.3125V14.0625Z" fill="black"/>
<path fill-rule="evenodd" clip-rule="evenodd" d="M25 20.3125C22.4112 20.3125 20.3125 22.4112 20.3125 25C20.3125 27.5888 22.4112 29.6875 25 29.6875C27.5888 29.6875 29.6875 27.5888 29.6875 25C29.6875 22.4112 27.5888 20.3125 25 20.3125ZM17.1875 25C17.1875 20.6853 20.6853 17.1875 25 17.1875C29.3147 17.1875 32.8125 20.6853 32.8125 25C32.8125 29.3147 29.3147 32.8125 25 32.8125C20.6853 32.8125 17.1875 29.3147 17.1875 25Z" fill="black"/>
<path fill-rule="evenodd" clip-rule="evenodd" d="M33.1991 11.4711C33.7674 10.8217 34.7545 10.7559 35.4039 11.3241L47.9039 22.2616C48.5534 22.8299 48.6192 23.817 48.0509 24.4664C47.4827 25.1159 46.4955 25.1817 45.8461 24.6134L33.3461 13.6759C32.6967 13.1077 32.6309 12.1205 33.1991 11.4711Z" fill="black"/>
<path fill-rule="evenodd" clip-rule="evenodd" d="M48.0509 25.5336C48.6192 26.183 48.5534 27.1702 47.9039 27.7384L35.4039 38.6759C34.7545 39.2442 33.7674 39.1784 33.1991 38.5289C32.6309 37.8795 32.6967 36.8924 33.3461 36.3241L45.8461 25.3866C46.4955 24.8184 47.4827 24.8842 48.0509 25.5336Z" fill="black"/>
<path fill-rule="evenodd" clip-rule="evenodd" d="M16.8009 11.4711C17.3692 12.1205 17.3034 13.1077 16.6539 13.6759L4.15393 24.6134C3.5045 25.1817 2.51737 25.1159 1.94912 24.4664C1.38087 23.817 1.44668 22.8299 2.09611 22.2616L14.5961 11.3241C15.2455 10.7559 16.2327 10.8217 16.8009 11.4711Z" fill="black"/>
<path fill-rule="evenodd" clip-rule="evenodd" d="M1.94912 25.5336C2.51737 24.8842 3.5045 24.8184 4.15393 25.3866L16.6539 36.3241C17.3034 36.8924 17.3692 37.8795 16.8009 38.5289C16.2327 39.1784 15.2455 39.2442 14.5961 38.6759L2.09611 27.7384C1.44668 27.1702 1.38087 26.183 1.94912 25.5336Z" fill="black"/>
</svg>
