<svg width="50" height="50" viewBox="0 0 50 50" fill="none" xmlns="http://www.w3.org/2000/svg">
<path fill-rule="evenodd" clip-rule="evenodd" d="M17.1875 21.875C17.1875 21.0121 17.8871 20.3125 18.75 20.3125H34.375C35.2379 20.3125 35.9375 21.0121 35.9375 21.875C35.9375 22.7379 35.2379 23.4375 34.375 23.4375H18.75C17.8871 23.4375 17.1875 22.7379 17.1875 21.875Z" fill="black"/>
<path fill-rule="evenodd" clip-rule="evenodd" d="M17.1875 28.125C17.1875 27.2621 17.8871 26.5625 18.75 26.5625H34.375C35.2379 26.5625 35.9375 27.2621 35.9375 28.125C35.9375 28.9879 35.2379 29.6875 34.375 29.6875H18.75C17.8871 29.6875 17.1875 28.9879 17.1875 28.125Z" fill="black"/>
<path fill-rule="evenodd" clip-rule="evenodd" d="M8.72779 10.2903C9.31384 9.70424 10.1087 9.375 10.9375 9.375H42.1875C43.0163 9.375 43.8112 9.70424 44.3972 10.2903C44.9833 10.8763 45.3125 11.6712 45.3125 12.5V35.9375C45.3125 37.1807 44.8186 38.373 43.9396 39.2521C43.0605 40.1311 41.8682 40.625 40.625 40.625H6.25C5.38706 40.625 4.6875 39.9254 4.6875 39.0625C4.6875 38.1996 5.38706 37.5 6.25 37.5C6.6644 37.5 7.06183 37.3354 7.35485 37.0424C7.64788 36.7493 7.8125 36.3519 7.8125 35.9375V12.5C7.8125 11.6712 8.14174 10.8763 8.72779 10.2903ZM10.6694 37.5H40.625C41.0394 37.5 41.4368 37.3354 41.7299 37.0424C42.0229 36.7493 42.1875 36.3519 42.1875 35.9375V12.5L10.9375 12.5V35.9375C10.9375 36.4749 10.8452 37.0028 10.6694 37.5Z" fill="black"/>
<path fill-rule="evenodd" clip-rule="evenodd" d="M3.125 15.625C3.98795 15.625 4.6875 16.3246 4.6875 17.1875V35.9375C4.6875 36.3519 4.85212 36.7493 5.14515 37.0424C5.43817 37.3354 5.8356 37.5 6.25 37.5C7.11295 37.5 7.8125 38.1996 7.8125 39.0625C7.8125 39.9254 7.11295 40.625 6.25 40.625C5.0068 40.625 3.81451 40.1311 2.93544 39.2521C2.05636 38.373 1.5625 37.1807 1.5625 35.9375V17.1875C1.5625 16.3246 2.26206 15.625 3.125 15.625Z" fill="black"/>
</svg>
