<svg width="50" height="50" viewBox="0 0 50 50" fill="none" xmlns="http://www.w3.org/2000/svg">
<path fill-rule="evenodd" clip-rule="evenodd" d="M25 7.8125C18.9594 7.8125 14.0625 12.7094 14.0625 18.75C14.0625 24.7906 18.9594 29.6875 25 29.6875C31.0406 29.6875 35.9375 24.7906 35.9375 18.75C35.9375 12.7094 31.0406 7.8125 25 7.8125ZM10.9375 18.75C10.9375 10.9835 17.2335 4.6875 25 4.6875C32.7665 4.6875 39.0625 10.9835 39.0625 18.75C39.0625 26.5165 32.7665 32.8125 25 32.8125C17.2335 32.8125 10.9375 26.5165 10.9375 18.75Z" fill="black"/>
<path fill-rule="evenodd" clip-rule="evenodd" d="M25 32.8108C21.4341 32.8108 17.931 33.7495 14.843 35.5326C11.7549 37.3157 9.19061 39.8803 7.40794 42.9687C6.97654 43.716 6.02095 43.9722 5.27358 43.5408C4.52621 43.1094 4.27006 42.1538 4.70147 41.4064C6.75839 37.843 9.71716 34.8838 13.2803 32.8264C16.8435 30.7689 20.8855 29.6858 25 29.6858C29.1145 29.6858 33.1565 30.7689 36.7197 32.8264C40.2829 34.8838 43.2416 37.843 45.2986 41.4064C45.73 42.1538 45.4738 43.1094 44.7265 43.5408C43.9791 43.9722 43.0235 43.716 42.5921 42.9687C40.8094 39.8803 38.2452 37.3157 35.1571 35.5326C32.069 33.7495 28.5659 32.8108 25 32.8108Z" fill="black"/>
</svg>
