<svg width="220" height="110" viewBox="0 0 220 110" fill="none" xmlns="http://www.w3.org/2000/svg">
<path opacity="0.5" d="M87.6607 89.1825C106.593 89.1825 119.595 97 128.717 97C137.84 97 157 92.8196 157 59.3655C157 25.9113 131.225 21 121.19 21C74.2023 21 54.1311 89.1825 87.6607 89.1825Z" fill="#F5F3F7"/>
<g clip-path="url(#clip0_578_14867)">
<path d="M144.02 50.5C144.02 50.0362 143.806 49.5987 143.439 49.3149C143.438 49.3135 139.772 46.4726 135.021 42.742V37C135.021 33.6909 132.33 30.9999 129.02 30.9999H120.284C118.147 29.2543 116.292 27.7111 115.053 26.6127C113.861 25.5586 112.441 25.0001 111.021 25C109.6 24.9999 108.179 25.5591 106.989 26.6128C105.751 27.7113 103.896 29.2545 101.757 31.0001H93.0206C89.7114 31.0001 87.0205 33.6909 87.0205 37V42.7418C82.2682 46.4722 78.6035 49.3135 78.602 49.3149C78.2347 49.5987 78.0212 50.0362 78.0208 50.5H78.0205V84.9999C78.0205 88.309 80.7114 91 84.0206 91H138.021C141.33 91 144.021 88.3091 144.021 84.9999V50.5H144.02ZM135.021 46.5543C137.118 48.197 138.899 49.5852 140.073 50.4986C138.901 51.4083 137.117 52.7957 135.021 54.4354V46.5543ZM108.979 28.8583C110.265 27.7187 111.775 27.7172 113.064 28.8597C113.739 29.4568 114.59 30.1825 115.569 30.9999H106.474C107.452 30.1825 108.303 29.4563 108.979 28.8583ZM90.0205 37C90.0205 35.3462 91.3667 34 93.0204 34H129.02C130.674 34 132.021 35.3462 132.021 37V56.7863C125.306 62.0599 116.883 68.7587 113.064 72.1401C112.702 72.4608 111.948 73 110.974 73C110.262 73 109.575 72.7114 108.93 72.1401C105.087 68.7376 96.7069 62.0606 90.0205 56.7998V37ZM87.0205 46.5543V54.4449C84.9222 52.8016 83.1386 51.4112 81.9667 50.5001C83.1394 49.5865 84.921 48.1981 87.0205 46.5543ZM141.021 85.0001C141.021 86.6538 139.674 88 138.021 88H84.0206C82.3668 88 81.0206 86.6538 81.0206 85.0001V53.5626C87.277 58.4325 101.752 69.7902 106.941 74.3873C108.133 75.4419 109.528 76.0001 110.974 76.0001C112.43 76.0001 113.879 75.4273 115.053 74.3873C120.446 69.6116 135.208 58.0792 141.021 53.5617V85.0001Z" fill="#1CB647"/>
<path d="M106.521 49.0001C107.349 49.0001 108.021 48.3285 108.021 47.5001C108.021 46.6716 107.349 46 106.521 46C105.692 46 105.021 46.6716 105.021 47.5001C105.021 48.3285 105.692 49.0001 106.521 49.0001Z" fill="#1CB647"/>
<path d="M115.521 49.0001C116.349 49.0001 117.021 48.3285 117.021 47.5001C117.021 46.6716 116.349 46 115.521 46C114.692 46 114.021 46.6716 114.021 47.5001C114.021 48.3285 114.692 49.0001 115.521 49.0001Z" fill="#1CB647"/>
<path d="M118.363 54.1705C118.729 53.4381 118.434 52.5563 117.706 52.1798C116.98 51.7975 116.079 52.089 115.689 52.8097C115.641 52.899 114.469 54.9996 111.021 54.9996C107.599 54.9996 106.418 52.9298 106.354 52.8111C105.979 52.0831 105.089 51.7945 104.35 52.1577C103.608 52.5283 103.308 53.4293 103.679 54.1705C103.756 54.3273 105.655 57.9996 111.021 57.9996C116.386 57.9996 118.285 54.3273 118.363 54.1705Z" fill="#1CB647"/>
</g>
<g opacity="0.5">
<mask id="path-6-inside-1_578_14867" fill="white">
<ellipse cx="54.2449" cy="24.2563" rx="2.2449" ry="1.25338"/>
</mask>
<path d="M54.4898 24.2563C54.4898 23.9201 54.6174 23.6708 54.7192 23.5365C54.8115 23.4146 54.8825 23.3822 54.8573 23.3963C54.8013 23.4276 54.5888 23.5097 54.2449 23.5097V27.5097C55.1409 27.5097 56.0508 27.3112 56.8073 26.8888C57.4981 26.5032 58.4898 25.6535 58.4898 24.2563H54.4898ZM54.2449 23.5097C53.901 23.5097 53.6885 23.4276 53.6325 23.3963C53.6073 23.3822 53.6783 23.4146 53.7706 23.5365C53.8724 23.6708 54 23.9201 54 24.2563H50C50 25.6535 50.9917 26.5032 51.6825 26.8888C52.439 27.3112 53.3489 27.5097 54.2449 27.5097V23.5097ZM54 24.2563C54 24.5926 53.8724 24.8418 53.7706 24.9761C53.6783 25.098 53.6073 25.1304 53.6325 25.1163C53.6885 25.085 53.901 25.0029 54.2449 25.0029V21.0029C53.3489 21.0029 52.439 21.2014 51.6825 21.6238C50.9917 22.0095 50 22.8591 50 24.2563H54ZM54.2449 25.0029C54.5888 25.0029 54.8013 25.085 54.8573 25.1163C54.8825 25.1304 54.8115 25.098 54.7192 24.9761C54.6174 24.8418 54.4898 24.5926 54.4898 24.2563H58.4898C58.4898 22.8591 57.4981 22.0095 56.8073 21.6238C56.0508 21.2014 55.1409 21.0029 54.2449 21.0029V25.0029Z" fill="#1CB647" mask="url(#path-6-inside-1_578_14867)"/>
</g>
<circle opacity="0.5" cx="149.521" cy="30.5" r="3.5" stroke="#1CB647" stroke-width="2"/>
<circle opacity="0.5" cx="69.5205" cy="39.5" r="3.5" stroke="#1CB647" stroke-width="2"/>
<circle opacity="0.5" cx="160.021" cy="38" r="2" stroke="#1CB647" stroke-width="2"/>
<g opacity="0.5">
<line x1="164.021" y1="20" x2="164.021" y2="28" stroke="#1CB647" stroke-width="2"/>
<line x1="160.021" y1="24" x2="168.021" y2="24" stroke="#1CB647" stroke-width="2"/>
</g>
<g opacity="0.5">
<line x1="56.0205" y1="27" x2="56.0205" y2="35" stroke="#1CB647" stroke-width="2"/>
<line x1="52.0205" y1="31" x2="60.0205" y2="31" stroke="#1CB647" stroke-width="2"/>
</g>
<g opacity="0.5">
<line x1="74.0205" y1="21" x2="74.0205" y2="27" stroke="#1CB647" stroke-width="2"/>
<line x1="71.0205" y1="24" x2="77.0205" y2="24" stroke="#1CB647" stroke-width="2"/>
</g>
<defs>
<clipPath id="clip0_578_14867">
<rect width="66" height="66" fill="white" transform="translate(78.0205 25)"/>
</clipPath>
</defs>
</svg>
